<mxfile host="Electron" modified="2023-12-03T04:02:05.898Z" agent="Mozilla/5.0 (Windows NT 10.0; Win64; x64) AppleWebKit/537.36 (KHTML, like Gecko) draw.io/22.1.2 Chrome/114.0.5735.289 Electron/25.9.4 Safari/537.36" etag="9_-FrGnEb1Ciu5aSKoFY" version="22.1.2" type="device">
  <diagram name="Page-1" id="0eKocr3Pi7FbNeV-tCuH">
    <mxGraphModel dx="915" dy="823" grid="1" gridSize="10" guides="1" tooltips="1" connect="1" arrows="1" fold="1" page="1" pageScale="1" pageWidth="850" pageHeight="1100" math="0" shadow="0">
      <root>
        <mxCell id="0" />
        <mxCell id="1" parent="0" />
        <mxCell id="gKInCiydTHZTv81_qNxm-2" value="AWS Cloud" style="sketch=0;outlineConnect=0;gradientColor=none;html=1;whiteSpace=wrap;fontSize=12;fontStyle=0;shape=mxgraph.aws4.group;grIcon=mxgraph.aws4.group_aws_cloud;strokeColor=#AAB7B8;fillColor=none;verticalAlign=top;align=left;spacingLeft=30;fontColor=#AAB7B8;dashed=0;" vertex="1" parent="1">
          <mxGeometry x="540" y="255" width="330" height="270" as="geometry" />
        </mxCell>
        <mxCell id="gKInCiydTHZTv81_qNxm-3" value="Terraform" style="sketch=0;outlineConnect=0;gradientColor=none;html=1;whiteSpace=wrap;fontSize=12;fontStyle=0;shape=mxgraph.aws4.group;grIcon=mxgraph.aws4.group_on_premise;strokeColor=#AAB7B8;fillColor=none;verticalAlign=top;align=left;spacingLeft=30;fontColor=#AAB7B8;dashed=0;" vertex="1" parent="1">
          <mxGeometry x="180" y="255" width="330" height="270" as="geometry" />
        </mxCell>
        <mxCell id="gKInCiydTHZTv81_qNxm-8" style="edgeStyle=orthogonalEdgeStyle;rounded=0;orthogonalLoop=1;jettySize=auto;html=1;entryX=0;entryY=0.5;entryDx=0;entryDy=0;" edge="1" parent="1" source="gKInCiydTHZTv81_qNxm-4" target="gKInCiydTHZTv81_qNxm-6">
          <mxGeometry relative="1" as="geometry" />
        </mxCell>
        <mxCell id="gKInCiydTHZTv81_qNxm-9" style="edgeStyle=orthogonalEdgeStyle;rounded=0;orthogonalLoop=1;jettySize=auto;html=1;entryX=0;entryY=0.5;entryDx=0;entryDy=0;" edge="1" parent="1" source="gKInCiydTHZTv81_qNxm-4" target="gKInCiydTHZTv81_qNxm-7">
          <mxGeometry relative="1" as="geometry" />
        </mxCell>
        <mxCell id="gKInCiydTHZTv81_qNxm-4" value="modules/vpc&lt;br&gt;modules/instances&lt;br&gt;..." style="sketch=0;outlineConnect=0;fontColor=#232F3E;gradientColor=none;fillColor=#232F3D;strokeColor=none;dashed=0;verticalLabelPosition=bottom;verticalAlign=top;align=center;html=1;fontSize=12;fontStyle=0;aspect=fixed;pointerEvents=1;shape=mxgraph.aws4.documents2;" vertex="1" parent="1">
          <mxGeometry x="201.5" y="351" width="67" height="78" as="geometry" />
        </mxCell>
        <mxCell id="gKInCiydTHZTv81_qNxm-15" style="edgeStyle=orthogonalEdgeStyle;rounded=0;orthogonalLoop=1;jettySize=auto;html=1;" edge="1" parent="1" source="gKInCiydTHZTv81_qNxm-6" target="gKInCiydTHZTv81_qNxm-10">
          <mxGeometry relative="1" as="geometry" />
        </mxCell>
        <mxCell id="gKInCiydTHZTv81_qNxm-6" value="dev/" style="rounded=0;whiteSpace=wrap;html=1;fillColor=#fff2cc;strokeColor=#d6b656;" vertex="1" parent="1">
          <mxGeometry x="370" y="291" width="120" height="60" as="geometry" />
        </mxCell>
        <mxCell id="gKInCiydTHZTv81_qNxm-16" style="edgeStyle=orthogonalEdgeStyle;rounded=0;orthogonalLoop=1;jettySize=auto;html=1;" edge="1" parent="1" source="gKInCiydTHZTv81_qNxm-7" target="gKInCiydTHZTv81_qNxm-13">
          <mxGeometry relative="1" as="geometry" />
        </mxCell>
        <mxCell id="gKInCiydTHZTv81_qNxm-7" value="prod/" style="rounded=0;whiteSpace=wrap;html=1;fillColor=#d5e8d4;strokeColor=#82b366;" vertex="1" parent="1">
          <mxGeometry x="370" y="440" width="120" height="60" as="geometry" />
        </mxCell>
        <mxCell id="gKInCiydTHZTv81_qNxm-18" style="edgeStyle=orthogonalEdgeStyle;rounded=0;orthogonalLoop=1;jettySize=auto;html=1;" edge="1" parent="1" source="gKInCiydTHZTv81_qNxm-10" target="gKInCiydTHZTv81_qNxm-14">
          <mxGeometry relative="1" as="geometry">
            <Array as="points">
              <mxPoint x="695" y="360" />
              <mxPoint x="725" y="360" />
            </Array>
          </mxGeometry>
        </mxCell>
        <mxCell id="gKInCiydTHZTv81_qNxm-10" value="AWS Dev Account" style="points=[[0,0],[0.25,0],[0.5,0],[0.75,0],[1,0],[1,0.25],[1,0.5],[1,0.75],[1,1],[0.75,1],[0.5,1],[0.25,1],[0,1],[0,0.75],[0,0.5],[0,0.25]];outlineConnect=0;html=1;whiteSpace=wrap;fontSize=12;fontStyle=0;container=1;pointerEvents=0;collapsible=0;recursiveResize=0;shape=mxgraph.aws4.group;grIcon=mxgraph.aws4.group_account;strokeColor=#d6b656;fillColor=#fff2cc;verticalAlign=top;align=left;spacingLeft=30;dashed=0;" vertex="1" parent="1">
          <mxGeometry x="610" y="301" width="170" height="40" as="geometry" />
        </mxCell>
        <mxCell id="gKInCiydTHZTv81_qNxm-17" style="edgeStyle=orthogonalEdgeStyle;rounded=0;orthogonalLoop=1;jettySize=auto;html=1;" edge="1" parent="1" source="gKInCiydTHZTv81_qNxm-13" target="gKInCiydTHZTv81_qNxm-14">
          <mxGeometry relative="1" as="geometry">
            <Array as="points">
              <mxPoint x="695" y="430" />
              <mxPoint x="725" y="430" />
            </Array>
          </mxGeometry>
        </mxCell>
        <mxCell id="gKInCiydTHZTv81_qNxm-13" value="AWS Prod Account" style="points=[[0,0],[0.25,0],[0.5,0],[0.75,0],[1,0],[1,0.25],[1,0.5],[1,0.75],[1,1],[0.75,1],[0.5,1],[0.25,1],[0,1],[0,0.75],[0,0.5],[0,0.25]];outlineConnect=0;html=1;whiteSpace=wrap;fontSize=12;fontStyle=0;container=1;pointerEvents=0;collapsible=0;recursiveResize=0;shape=mxgraph.aws4.group;grIcon=mxgraph.aws4.group_account;strokeColor=#82b366;fillColor=#d5e8d4;verticalAlign=top;align=left;spacingLeft=30;dashed=0;" vertex="1" parent="1">
          <mxGeometry x="610" y="450" width="170" height="40" as="geometry" />
        </mxCell>
        <mxCell id="gKInCiydTHZTv81_qNxm-14" value="AWS Billing Account" style="points=[[0,0],[0.25,0],[0.5,0],[0.75,0],[1,0],[1,0.25],[1,0.5],[1,0.75],[1,1],[0.75,1],[0.5,1],[0.25,1],[0,1],[0,0.75],[0,0.5],[0,0.25]];outlineConnect=0;html=1;whiteSpace=wrap;fontSize=12;fontStyle=0;container=1;pointerEvents=0;collapsible=0;recursiveResize=0;shape=mxgraph.aws4.group;grIcon=mxgraph.aws4.group_account;strokeColor=#9673a6;fillColor=#e1d5e7;verticalAlign=top;align=left;spacingLeft=30;dashed=0;" vertex="1" parent="1">
          <mxGeometry x="640" y="380" width="170" height="30" as="geometry" />
        </mxCell>
      </root>
    </mxGraphModel>
  </diagram>
</mxfile>
